<svg width="16" height="16" viewBox="0 0 16 16" fill="none" xmlns="http://www.w3.org/2000/svg">
<rect width="16" height="16" fill="white"/>
<path d="M7.01907 1.02099C12.4433 0.258662 14.2161 1.59105 14.9789 7.01919C15.7418 12.4473 14.405 14.2167 8.98075 14.9791C3.55649 15.7414 1.78375 14.409 1.02088 8.98086C0.258003 3.55273 1.59093 1.78387 7.01907 1.02099ZM9.3495 3.194C8.53214 3.30887 7.78481 3.53059 7.1075 3.85916C6.43019 4.18774 5.90353 4.59182 5.5275 5.07143C5.15148 5.55103 4.99931 6.04585 5.07099 6.55588C5.19413 7.4321 5.82906 8.08302 6.97578 8.50865L7.16569 8.15189C6.75723 7.90256 6.4333 7.64969 6.19389 7.39328C5.95448 7.13686 5.81134 6.84192 5.76447 6.50843C5.69187 5.99185 5.98953 5.47659 6.65745 4.96263C7.32538 4.44867 8.22495 4.1122 9.35619 3.95322C9.53928 3.92749 9.68732 3.91335 9.80032 3.9108C9.32397 4.3645 8.93847 4.90711 8.64381 5.53865C8.34915 6.17019 8.12035 6.9975 7.95741 8.02062C7.85141 8.64231 7.79371 8.96715 7.7843 8.99514C7.08167 9.16724 6.42807 9.43914 5.82351 9.81083C5.21894 10.1825 4.74944 10.6019 4.415 11.069C4.08056 11.5361 3.94275 11.9789 4.00156 12.3974C4.04016 12.672 4.15945 12.8803 4.35943 13.0222C4.55942 13.1642 4.81144 13.2138 5.1155 13.171C5.41956 13.1283 5.77359 12.9785 6.17759 12.7217C6.58159 12.4649 6.939 12.1613 7.24983 11.8108C7.56066 11.4604 7.80451 11.0961 7.9814 10.7178C8.15829 10.3395 8.30902 9.85827 8.43362 9.27397C8.60557 9.21646 8.76348 9.1776 8.90734 9.15738C9.05119 9.13716 9.21696 9.13054 9.40465 9.1375L9.40836 8.73689C9.20759 8.73177 8.91432 8.75631 8.52852 8.81054C8.76056 7.37762 9.02826 6.28145 9.33161 5.522C9.63497 4.76255 10.0229 4.18959 10.4953 3.80312C10.6871 3.64947 10.7738 3.50726 10.7554 3.37648C10.7343 3.22609 10.5944 3.14406 10.3358 3.1304C10.0771 3.11674 9.74838 3.13794 9.3495 3.194ZM5.59555 12.4234C5.419 12.4482 5.27479 12.4185 5.16293 12.3342C5.05106 12.2499 4.98318 12.1227 4.95928 11.9527C4.88944 11.4558 5.12214 10.9646 5.6574 10.4793C6.19266 9.994 6.87933 9.64911 7.71745 9.44463C7.67327 9.98429 7.53417 10.4773 7.30017 10.9236C7.06616 11.3699 6.79876 11.7209 6.49795 11.9765C6.19714 12.2322 5.89635 12.3811 5.59555 12.4234ZM12.154 5.11034C12.0224 5.07549 11.7359 5.08908 11.2945 5.15111C10.8531 5.21314 10.5087 5.34823 10.2613 5.55638C10.0138 5.76453 9.91256 6.02881 9.95759 6.34922C9.9824 6.52577 10.1678 6.81311 10.5138 7.21124C10.8598 7.60937 11.0441 7.88854 11.0666 8.04874C11.0891 8.20895 11.0524 8.3508 10.9564 8.47432C10.8604 8.59784 10.7372 8.67016 10.5868 8.6913C10.4364 8.71243 10.2913 8.67615 10.1514 8.58245C10.0936 8.55057 10.0053 8.4913 9.88639 8.40465C9.76752 8.318 9.65726 8.24515 9.55561 8.18609L9.22011 8.50329C9.63906 9.06455 10.1232 9.30657 10.6724 9.22938C11.0713 9.17332 11.3761 9.0288 11.5867 8.79582C11.7974 8.56284 11.8779 8.2698 11.8282 7.9167C11.8071 7.7663 11.6329 7.4874 11.3056 7.07997C10.9782 6.67254 10.8081 6.42305 10.7953 6.33151C10.7346 5.89994 11.0312 5.63821 11.6851 5.54631C11.8617 5.5215 12.0065 5.50782 12.1195 5.50527L12.154 5.11034Z" fill="black"/>
</svg>
